<mxfile host="65bd71144e">
    <diagram id="hRyM_0xU9pYxV0Yg8KEH" name="Page-1">
        <mxGraphModel dx="1278" dy="926" grid="1" gridSize="10" guides="1" tooltips="1" connect="1" arrows="1" fold="1" page="1" pageScale="1" pageWidth="850" pageHeight="1100" math="0" shadow="0">
            <root>
                <mxCell id="0"/>
                <mxCell id="1" parent="0"/>
                <mxCell id="12" value="Registration" style="ellipse;whiteSpace=wrap;html=1;fillColor=#dae8fc;strokeColor=#6c8ebf;gradientColor=#7ea6e0;" parent="1" vertex="1">
                    <mxGeometry x="358" y="100" width="152" height="60" as="geometry"/>
                </mxCell>
                <mxCell id="27" value="Employee" style="shape=umlActor;verticalLabelPosition=bottom;verticalAlign=top;html=1;shadow=1;fillColor=#f0a30a;fontColor=#000000;strokeColor=#BD7000;" parent="1" vertex="1">
                    <mxGeometry x="690" y="700" width="110" height="140" as="geometry"/>
                </mxCell>
                <mxCell id="28" value="Login" style="ellipse;whiteSpace=wrap;html=1;fillColor=#dae8fc;strokeColor=#6c8ebf;gradientColor=#7ea6e0;" parent="1" vertex="1">
                    <mxGeometry x="358" y="180" width="152" height="60" as="geometry"/>
                </mxCell>
                <mxCell id="29" value="Navigate Menu" style="ellipse;whiteSpace=wrap;html=1;fillColor=#dae8fc;strokeColor=#6c8ebf;gradientColor=#7ea6e0;" parent="1" vertex="1">
                    <mxGeometry x="358" y="260" width="152" height="60" as="geometry"/>
                </mxCell>
                <mxCell id="30" value="Select Item" style="ellipse;whiteSpace=wrap;html=1;fillColor=#dae8fc;strokeColor=#6c8ebf;gradientColor=#7ea6e0;" parent="1" vertex="1">
                    <mxGeometry x="358" y="340" width="152" height="60" as="geometry"/>
                </mxCell>
                <mxCell id="31" value="Add Item" style="ellipse;whiteSpace=wrap;html=1;fillColor=#dae8fc;strokeColor=#6c8ebf;gradientColor=#7ea6e0;" parent="1" vertex="1">
                    <mxGeometry x="358" y="420" width="152" height="60" as="geometry"/>
                </mxCell>
                <mxCell id="32" value="Remove Item" style="ellipse;whiteSpace=wrap;html=1;fillColor=#dae8fc;strokeColor=#6c8ebf;gradientColor=#7ea6e0;" parent="1" vertex="1">
                    <mxGeometry x="358" y="500" width="152" height="60" as="geometry"/>
                </mxCell>
                <mxCell id="33" value="Review Order" style="ellipse;whiteSpace=wrap;html=1;fillColor=#dae8fc;strokeColor=#6c8ebf;gradientColor=#7ea6e0;" parent="1" vertex="1">
                    <mxGeometry x="358" y="580" width="152" height="60" as="geometry"/>
                </mxCell>
                <mxCell id="34" value="Replace Order" style="ellipse;whiteSpace=wrap;html=1;fillColor=#dae8fc;strokeColor=#6c8ebf;gradientColor=#7ea6e0;" parent="1" vertex="1">
                    <mxGeometry x="358" y="660" width="152" height="60" as="geometry"/>
                </mxCell>
                <mxCell id="35" value="Pay for Order" style="ellipse;whiteSpace=wrap;html=1;fillColor=#dae8fc;strokeColor=#6c8ebf;gradientColor=#7ea6e0;" parent="1" vertex="1">
                    <mxGeometry x="358" y="740" width="152" height="60" as="geometry"/>
                </mxCell>
                <mxCell id="36" value="&lt;span style=&quot;color: rgb(0, 0, 0);&quot;&gt;Recieve for Order&lt;/span&gt;" style="ellipse;whiteSpace=wrap;html=1;fillColor=#dae8fc;strokeColor=#6c8ebf;gradientColor=#7ea6e0;" parent="1" vertex="1">
                    <mxGeometry x="358" y="820" width="152" height="60" as="geometry"/>
                </mxCell>
                <mxCell id="37" value="Update Menu" style="ellipse;whiteSpace=wrap;html=1;fillColor=#dae8fc;strokeColor=#6c8ebf;gradientColor=#7ea6e0;" parent="1" vertex="1">
                    <mxGeometry x="358" y="900" width="152" height="60" as="geometry"/>
                </mxCell>
                <mxCell id="38" value="Check out" style="ellipse;whiteSpace=wrap;html=1;fillColor=#dae8fc;strokeColor=#6c8ebf;gradientColor=#7ea6e0;" parent="1" vertex="1">
                    <mxGeometry x="358" y="1060" width="152" height="60" as="geometry"/>
                </mxCell>
                <mxCell id="39" value="Recieve Confirmation" style="ellipse;whiteSpace=wrap;html=1;fillColor=#dae8fc;strokeColor=#6c8ebf;gradientColor=#7ea6e0;" parent="1" vertex="1">
                    <mxGeometry x="358" y="980" width="152" height="60" as="geometry"/>
                </mxCell>
                <mxCell id="40" value="analisa" style="shape=umlActor;verticalLabelPosition=bottom;verticalAlign=top;html=1;shadow=1;fillColor=#a0522d;strokeColor=#6D1F00;fontColor=#ffffff;" parent="1" vertex="1">
                    <mxGeometry x="40" y="250" width="110" height="140" as="geometry"/>
                </mxCell>
                <mxCell id="41" value="analisa" style="shape=umlActor;verticalLabelPosition=bottom;verticalAlign=top;html=1;shadow=1;fillColor=#e51400;fontColor=#ffffff;strokeColor=#B20000;" parent="1" vertex="1">
                    <mxGeometry x="690" y="160" width="110" height="140" as="geometry"/>
                </mxCell>
                <mxCell id="42" value="" style="endArrow=none;html=1;" parent="1" edge="1">
                    <mxGeometry width="50" height="50" relative="1" as="geometry">
                        <mxPoint x="160" y="320" as="sourcePoint"/>
                        <mxPoint x="350" y="130" as="targetPoint"/>
                        <Array as="points"/>
                    </mxGeometry>
                </mxCell>
                <mxCell id="43" value="" style="endArrow=none;html=1;" parent="1" edge="1">
                    <mxGeometry width="50" height="50" relative="1" as="geometry">
                        <mxPoint x="160" y="320" as="sourcePoint"/>
                        <mxPoint x="350" y="210" as="targetPoint"/>
                        <Array as="points"/>
                    </mxGeometry>
                </mxCell>
                <mxCell id="45" value="" style="endArrow=none;html=1;" parent="1" edge="1">
                    <mxGeometry width="50" height="50" relative="1" as="geometry">
                        <mxPoint x="160" y="320" as="sourcePoint"/>
                        <mxPoint x="350" y="370" as="targetPoint"/>
                        <Array as="points"/>
                    </mxGeometry>
                </mxCell>
                <mxCell id="46" value="" style="endArrow=none;html=1;" parent="1" edge="1">
                    <mxGeometry width="50" height="50" relative="1" as="geometry">
                        <mxPoint x="160" y="320" as="sourcePoint"/>
                        <mxPoint x="350" y="450" as="targetPoint"/>
                        <Array as="points"/>
                    </mxGeometry>
                </mxCell>
                <mxCell id="47" value="" style="endArrow=none;html=1;" parent="1" edge="1">
                    <mxGeometry width="50" height="50" relative="1" as="geometry">
                        <mxPoint x="160" y="320" as="sourcePoint"/>
                        <mxPoint x="350" y="530" as="targetPoint"/>
                        <Array as="points"/>
                    </mxGeometry>
                </mxCell>
                <mxCell id="49" value="" style="endArrow=none;html=1;" parent="1" edge="1">
                    <mxGeometry width="50" height="50" relative="1" as="geometry">
                        <mxPoint x="160" y="320" as="sourcePoint"/>
                        <mxPoint x="350" y="610" as="targetPoint"/>
                        <Array as="points"/>
                    </mxGeometry>
                </mxCell>
                <mxCell id="50" value="" style="endArrow=none;html=1;" parent="1" edge="1">
                    <mxGeometry width="50" height="50" relative="1" as="geometry">
                        <mxPoint x="160" y="320" as="sourcePoint"/>
                        <mxPoint x="350" y="690" as="targetPoint"/>
                        <Array as="points"/>
                    </mxGeometry>
                </mxCell>
                <mxCell id="52" value="" style="endArrow=none;html=1;" parent="1" edge="1">
                    <mxGeometry width="50" height="50" relative="1" as="geometry">
                        <mxPoint x="160" y="320" as="sourcePoint"/>
                        <mxPoint x="350" y="770" as="targetPoint"/>
                        <Array as="points"/>
                    </mxGeometry>
                </mxCell>
                <mxCell id="54" value="" style="endArrow=none;html=1;" parent="1" edge="1">
                    <mxGeometry width="50" height="50" relative="1" as="geometry">
                        <mxPoint x="160" y="320" as="sourcePoint"/>
                        <mxPoint x="350" y="1010" as="targetPoint"/>
                        <Array as="points"/>
                    </mxGeometry>
                </mxCell>
                <mxCell id="55" value="" style="endArrow=none;html=1;" parent="1" edge="1">
                    <mxGeometry width="50" height="50" relative="1" as="geometry">
                        <mxPoint x="160" y="320" as="sourcePoint"/>
                        <mxPoint x="350" y="1090" as="targetPoint"/>
                        <Array as="points"/>
                    </mxGeometry>
                </mxCell>
                <mxCell id="56" value="" style="endArrow=none;html=1;fillColor=#008a00;strokeColor=#000000;" parent="1" edge="1">
                    <mxGeometry width="50" height="50" relative="1" as="geometry">
                        <mxPoint x="520" y="130" as="sourcePoint"/>
                        <mxPoint x="670" y="770" as="targetPoint"/>
                        <Array as="points"/>
                    </mxGeometry>
                </mxCell>
                <mxCell id="57" value="" style="endArrow=none;html=1;" parent="1" edge="1">
                    <mxGeometry width="50" height="50" relative="1" as="geometry">
                        <mxPoint x="520" y="210" as="sourcePoint"/>
                        <mxPoint x="670" y="770" as="targetPoint"/>
                        <Array as="points"/>
                    </mxGeometry>
                </mxCell>
                <mxCell id="58" value="" style="endArrow=none;html=1;" parent="1" edge="1">
                    <mxGeometry width="50" height="50" relative="1" as="geometry">
                        <mxPoint x="520" y="290" as="sourcePoint"/>
                        <mxPoint x="680" y="240" as="targetPoint"/>
                        <Array as="points"/>
                    </mxGeometry>
                </mxCell>
                <mxCell id="59" value="" style="endArrow=none;html=1;" parent="1" edge="1">
                    <mxGeometry width="50" height="50" relative="1" as="geometry">
                        <mxPoint x="520" y="610" as="sourcePoint"/>
                        <mxPoint x="680" y="240" as="targetPoint"/>
                        <Array as="points"/>
                    </mxGeometry>
                </mxCell>
                <mxCell id="60" value="" style="endArrow=none;html=1;" parent="1" edge="1">
                    <mxGeometry width="50" height="50" relative="1" as="geometry">
                        <mxPoint x="520" y="610" as="sourcePoint"/>
                        <mxPoint x="670" y="770" as="targetPoint"/>
                        <Array as="points"/>
                    </mxGeometry>
                </mxCell>
                <mxCell id="61" value="" style="endArrow=none;html=1;" parent="1" edge="1">
                    <mxGeometry width="50" height="50" relative="1" as="geometry">
                        <mxPoint x="520" y="850" as="sourcePoint"/>
                        <mxPoint x="670" y="770" as="targetPoint"/>
                        <Array as="points"/>
                    </mxGeometry>
                </mxCell>
                <mxCell id="62" value="" style="endArrow=none;html=1;" parent="1" edge="1">
                    <mxGeometry width="50" height="50" relative="1" as="geometry">
                        <mxPoint x="520" y="850" as="sourcePoint"/>
                        <mxPoint x="680" y="240" as="targetPoint"/>
                        <Array as="points"/>
                    </mxGeometry>
                </mxCell>
                <mxCell id="63" value="" style="endArrow=none;html=1;" parent="1" edge="1">
                    <mxGeometry width="50" height="50" relative="1" as="geometry">
                        <mxPoint x="520" y="930" as="sourcePoint"/>
                        <mxPoint x="680" y="240" as="targetPoint"/>
                        <Array as="points"/>
                    </mxGeometry>
                </mxCell>
                <mxCell id="64" value="" style="endArrow=none;html=1;" parent="1" edge="1">
                    <mxGeometry width="50" height="50" relative="1" as="geometry">
                        <mxPoint x="520" y="1010" as="sourcePoint"/>
                        <mxPoint x="680" y="240" as="targetPoint"/>
                        <Array as="points"/>
                    </mxGeometry>
                </mxCell>
                <mxCell id="65" value="" style="endArrow=none;html=1;" parent="1" edge="1">
                    <mxGeometry width="50" height="50" relative="1" as="geometry">
                        <mxPoint x="520" y="1010" as="sourcePoint"/>
                        <mxPoint x="670" y="770" as="targetPoint"/>
                        <Array as="points"/>
                    </mxGeometry>
                </mxCell>
                <mxCell id="66" value="" style="endArrow=none;html=1;" parent="1" edge="1">
                    <mxGeometry width="50" height="50" relative="1" as="geometry">
                        <mxPoint x="520" y="1090" as="sourcePoint"/>
                        <mxPoint x="680" y="240" as="targetPoint"/>
                        <Array as="points"/>
                    </mxGeometry>
                </mxCell>
                <mxCell id="67" value="" style="endArrow=none;html=1;" parent="1" edge="1">
                    <mxGeometry width="50" height="50" relative="1" as="geometry">
                        <mxPoint x="520" y="1090" as="sourcePoint"/>
                        <mxPoint x="670" y="770" as="targetPoint"/>
                        <Array as="points"/>
                    </mxGeometry>
                </mxCell>
                <mxCell id="73" value="&lt;b&gt;&lt;font style=&quot;font-size: 34px;&quot;&gt;CRAVECART&lt;/font&gt;&lt;/b&gt;" style="text;html=1;align=center;verticalAlign=middle;resizable=0;points=[];autosize=1;fillColor=#f5f5f5;strokeColor=#666666;gradientColor=#b3b3b3;" parent="1" vertex="1">
                    <mxGeometry x="319" y="20" width="230" height="50" as="geometry"/>
                </mxCell>
                <mxCell id="74" value="Customer" style="text;html=1;align=center;verticalAlign=middle;resizable=0;points=[];autosize=1;strokeColor=none;fillColor=none;" parent="1" vertex="1">
                    <mxGeometry x="55" y="400" width="80" height="30" as="geometry"/>
                </mxCell>
                <mxCell id="75" value="Admin" style="text;html=1;align=center;verticalAlign=middle;resizable=0;points=[];autosize=1;strokeColor=none;fillColor=none;" parent="1" vertex="1">
                    <mxGeometry x="715" y="305" width="60" height="30" as="geometry"/>
                </mxCell>
            </root>
        </mxGraphModel>
    </diagram>
</mxfile>